<svg xmlns="http://www.w3.org/2000/svg" width="810.008" height="208.948" viewBox="0 0 810.008 208.948">
  <g id="logo" transform="translate(-58.572 -87)">
    <path id="Path_4311" data-name="Path 4311" d="M819.51,122.58H800.2a4,4,0,0,0-4.05,4v5a55.95,55.95,0,1,0,0,90.09v4.38a4,4,0,0,0,4.05,4.05h19.31a4,4,0,0,0,4-4.05V126.63a4,4,0,0,0-4-4.05ZM764.3,209.72A32.18,32.18,0,1,1,796.15,173v9.16a32.18,32.18,0,0,1-31.85,27.56Z" fill="#144a91"/>
    <path id="Path_4312" data-name="Path 4312" d="M188.55,95.55h26.39a3.9,3.9,0,0,1,3.67,5.24l-61.54,127a3.91,3.91,0,0,1-3.66,2.56H126a3.92,3.92,0,0,1-3.66-2.56l-63.53-127a3.9,3.9,0,0,1,3.67-5.24H89.09a3.89,3.89,0,0,1,3.69,2.62L139.91,198.7l45-100.52a3.91,3.91,0,0,1,3.64-2.63Z" fill="#fbb516"/>
    <path id="Path_4313" data-name="Path 4313" d="M227,110.9c0-8.63,6.36-15.38,15.19-15.38a15.38,15.38,0,0,1,0,30.75A14.952,14.952,0,0,1,227,110.9Zm5.35,22.89h19.29a3.73,3.73,0,0,1,3.91,3.52v89.48a3.73,3.73,0,0,1-3.91,3.52H232.39a3.73,3.73,0,0,1-3.91-3.52V137.31a3.73,3.73,0,0,1,3.91-3.52Z" fill="#fbb516"/>
    <path id="Path_4314" data-name="Path 4314" d="M462,230.31c-31.17,0-53.82-21.69-53.82-55.38,0-33.88,22.07-55.37,53.82-55.37,31,0,52.85,21.11,52.85,53.05,0,2.32-.08,4.64-.31,6.95a3.92,3.92,0,0,1-3.9,3.51h-75c1.35,15.87,12.2,24.78,25.75,24.78,10.53,0,16.77-4.78,20.44-11a3.91,3.91,0,0,1,3.38-2h21.35a3.89,3.89,0,0,1,3.63,5.37C503,217.39,486.1,230.31,462,230.31Zm-26.14-65.44h50.92c-.39-14.14-11.62-23-25.56-23-12.94-.04-23.22,8.28-25.33,23Z" fill="#144a91"/>
    <path id="Path_4315" data-name="Path 4315" d="M845.38,87h19.29a3.91,3.91,0,0,1,3.91,4V226.39a3.92,3.92,0,0,1-3.91,3.92H845.38a3.92,3.92,0,0,1-3.91-3.92V91a3.91,3.91,0,0,1,3.91-4Z" fill="#144a91"/>
    <path id="Path_4316" data-name="Path 4316" d="M323.6,95.17H289.78a13.42,13.42,0,0,0-13.42,13.42v108.3a13.42,13.42,0,0,0,13.42,13.42H323.6c43.18,0,71.25-26.53,71.25-67.38C394.85,121.89,366.78,95.17,323.6,95.17Zm21.93,110.77c-13.82,0-1.8-27.89-15.64-29.49-13.84,1.6-1.82,29.49-15.64,29.49-8.45,0-25.8-49.32-18-71.31A16.37,16.37,0,0,1,301.3,127a13.47,13.47,0,0,1,8.61-2.75c7.49,0,13.76,6.08,20,6.08s12.49-6.08,20-6.08c9.15,0,14.26,7.49,15.08,16.06C368.64,164.12,353.32,205.94,345.53,205.94Z" fill="#144a91"/>
    <path id="Path_4317" data-name="Path 4317" d="M698.67,207.46h-8.21c-8.52,0-11.42-3.1-11.42-10.26V145.78a.47.47,0,0,1,.47-.47h26.14a7.46,7.46,0,0,0,6-3.1c4.13-5.64,8.56-10.41,14.07-14a2.82,2.82,0,0,0-1.58-5.15H679.51a.47.47,0,0,1-.47-.47V100.9a4.38,4.38,0,0,0-4.38-4.38H656.12a4.38,4.38,0,0,0-4.38,4.38V197c0,24.58,13.75,33.3,34.27,33.3h12.66a4.38,4.38,0,0,0,4.38-4.38V211.84a4.38,4.38,0,0,0-4.38-4.38Z" fill="#144a91"/>
    <path id="Path_4318" data-name="Path 4318" d="M123.37,258.41h4.75l6.42,18.85,1,3.2h.24l1.06-3.2,6.69-18.85h4.76l-10.34,28.35h-4.51Z" fill="#144a91"/>
    <path id="Path_4319" data-name="Path 4319" d="M155.82,262.75a2.89,2.89,0,0,1-4.93-2,2.7,2.7,0,0,1,.85-2,2.92,2.92,0,0,1,4.08,0,2.74,2.74,0,0,1,.85,2,2.82,2.82,0,0,1-.85,2Zm-4.18,3.82h4.28v20.19h-4.28Z" fill="#144a91"/>
    <path id="Path_4320" data-name="Path 4320" d="M170.45,287.39a10.26,10.26,0,0,1-5.29-1.38,9.8,9.8,0,0,1-3.68-3.82,11.24,11.24,0,0,1-1.33-5.49,11.43,11.43,0,0,1,1.29-5.36A10.16,10.16,0,0,1,165,267.4a9.42,9.42,0,0,1,5.19-1.47,10.1,10.1,0,0,1,5.26,1.33,8.74,8.74,0,0,1,3.39,3.66,11.71,11.71,0,0,1,1.17,5.31,10,10,0,0,1-.08,1.34h-15.6a6.248,6.248,0,0,0,9.54,5.13,6.71,6.71,0,0,0,2.22-2.36l3.52,1.71A10.53,10.53,0,0,1,176,286a10.23,10.23,0,0,1-5.55,1.39Zm-6.34-25,4.24-4.79h3.76l4.27,4.79v.28h-4.11l-1.86-2.42H170l-1.82,2.42H164.1Zm11.68,12a5.23,5.23,0,0,0-2.55-4.06,5.69,5.69,0,0,0-3-.73,5.3,5.3,0,0,0-3.63,1.3,6.71,6.71,0,0,0-2,3.49ZM170.09,295a2.37,2.37,0,0,1-1.78-.77,2.5,2.5,0,0,1-.76-1.8,2.57,2.57,0,0,1,4.36-1.8,2.64,2.64,0,0,1,0,3.62A2.42,2.42,0,0,1,170.09,295Z" fill="#144a91"/>
    <path id="Path_4321" data-name="Path 4321" d="M184,266.57h4v2.77h.24a6.61,6.61,0,0,1,2.61-2.46,7.78,7.78,0,0,1,3.76-.95,7,7,0,0,1,5.55,2.16,8.68,8.68,0,0,1,1.9,5.92v12.75h-4.24v-12.2a4.78,4.78,0,0,0-1.19-3.54,4.41,4.41,0,0,0-3.24-1.17,4.53,4.53,0,0,0-2.68.83,5.77,5.77,0,0,0-1.82,2.22,7.08,7.08,0,0,0-.65,3v10.85H184Z" fill="#144a91"/>
    <path id="Path_4322" data-name="Path 4322" d="M216.88,258.41H222l12.83,20.83h.23l-.23-5.47V258.41h4.31v28.35h-4.51L221.2,264.87H221l.24,5.46v16.43h-4.32Z" fill="#144a91"/>
    <path id="Path_4323" data-name="Path 4323" d="M254,295.94a10.52,10.52,0,0,1-6.12-1.68,8.28,8.28,0,0,1-3.27-4.06l4-1.66a5.56,5.56,0,0,0,2.08,2.61,6.43,6.43,0,0,0,7.74-.67,6.55,6.55,0,0,0,1.58-4.71v-1.94h-.23a6.82,6.82,0,0,1-2.66,2.29,8.27,8.27,0,0,1-3.8.84,9,9,0,0,1-4.73-1.31,9.4,9.4,0,0,1-3.44-3.7,12.31,12.31,0,0,1,0-11,9.52,9.52,0,0,1,3.44-3.72,8.92,8.92,0,0,1,4.73-1.33,8.22,8.22,0,0,1,3.78.86,6.87,6.87,0,0,1,2.68,2.31H260v-2.53h4v19.12a11.36,11.36,0,0,1-1.27,5.56,8.38,8.38,0,0,1-3.54,3.51A11.18,11.18,0,0,1,254,295.94Zm-3-13.64a5.9,5.9,0,0,0,3,.78,5.72,5.72,0,0,0,5.12-3.07,7.3,7.3,0,0,0,.81-3.55,7.53,7.53,0,0,0-.81-3.6,5.62,5.62,0,0,0-2.15-2.27,5.83,5.83,0,0,0-3-.78,5.9,5.9,0,0,0-3,.78,5.56,5.56,0,0,0-2.18,2.27,7.529,7.529,0,0,0-.81,3.6,7.41,7.41,0,0,0,.81,3.57A5.56,5.56,0,0,0,251,282.3Z" fill="#144a91"/>
    <path id="Path_4324" data-name="Path 4324" d="M269,258.41h4.27v7.76l-.23,3.17h.23a6.72,6.72,0,0,1,2.6-2.46,7.74,7.74,0,0,1,3.78-.95,7.12,7.12,0,0,1,5.62,2.2,8.6,8.6,0,0,1,1.94,5.88v12.75H283v-12.2a4.65,4.65,0,0,0-1.24-3.52,4.45,4.45,0,0,0-3.19-1.19,4.56,4.56,0,0,0-2.67.85A5.83,5.83,0,0,0,274,273a6.82,6.82,0,0,0-.7,3v10.77H269Z" fill="#144a91"/>
    <path id="Path_4325" data-name="Path 4325" d="M296.59,262.75a2.87,2.87,0,0,1-4.08,0,2.82,2.82,0,0,1-.85-2,2.74,2.74,0,0,1,.85-2,2.92,2.92,0,0,1,4.08,0,2.7,2.7,0,0,1,.85,2A2.78,2.78,0,0,1,296.59,262.75Zm-4.17,3.82h4.27v20.19h-4.27Z" fill="#144a91"/>
    <path id="Path_4326" data-name="Path 4326" d="M311.22,287.39a10.25,10.25,0,0,1-5.28-1.38,9.89,9.89,0,0,1-3.69-3.82,11.34,11.34,0,0,1-1.32-5.49,11.55,11.55,0,0,1,1.28-5.36,10.18,10.18,0,0,1,3.59-3.94,9.41,9.41,0,0,1,5.18-1.47,10.11,10.11,0,0,1,5.27,1.33,8.66,8.66,0,0,1,3.38,3.66,11.71,11.71,0,0,1,1.17,5.31,8.6,8.6,0,0,1-.08,1.34h-15.6a6.56,6.56,0,0,0,2.06,4.46,6.13,6.13,0,0,0,4.16,1.56,6,6,0,0,0,3.32-.89,6.53,6.53,0,0,0,2.22-2.36l3.53,1.71a10.629,10.629,0,0,1-3.69,3.92A10.21,10.21,0,0,1,311.22,287.39Zm-6.33-25,4.23-4.79h3.76l4.28,4.79v.28H313l-1.86-2.42h-.39L309,262.69h-4.07Zm11.67,12a5.23,5.23,0,0,0-2.55-4.06,5.64,5.64,0,0,0-3-.73,5.29,5.29,0,0,0-3.62,1.3,6.73,6.73,0,0,0-2,3.49Z" fill="#144a91"/>
    <path id="Path_4327" data-name="Path 4327" d="M324.76,266.57h4v2.77H329a6.61,6.61,0,0,1,2.61-2.46,7.75,7.75,0,0,1,3.76-.95,7,7,0,0,1,5.54,2.16,8.63,8.63,0,0,1,1.9,5.92v12.75h-4.23v-12.2a4.78,4.78,0,0,0-1.19-3.54,4.43,4.43,0,0,0-3.25-1.17,4.52,4.52,0,0,0-2.67.83,5.6,5.6,0,0,0-1.82,2.22,6.931,6.931,0,0,0-.65,3v10.85h-4.28Z" fill="#144a91"/>
    <path id="Path_4328" data-name="Path 4328" d="M371,287.39a14.71,14.71,0,0,1-7.5-1.94,14.09,14.09,0,0,1-5.33-5.34,15.56,15.56,0,0,1,0-15.05,14.09,14.09,0,0,1,5.33-5.34,14.81,14.81,0,0,1,7.5-1.94,13.41,13.41,0,0,1,10.49,4.63l-3.05,3a9.851,9.851,0,0,0-3.26-2.61,9.46,9.46,0,0,0-4.14-.87,10.68,10.68,0,0,0-5.27,1.32A9.84,9.84,0,0,0,362,267a12.07,12.07,0,0,0,0,11.21,9.84,9.84,0,0,0,3.76,3.76,10.68,10.68,0,0,0,5.27,1.32,10.11,10.11,0,0,0,8.11-4l3.13,3a14.44,14.44,0,0,1-4.95,3.77A14.87,14.87,0,0,1,371,287.39Z" fill="#144a91"/>
    <path id="Path_4329" data-name="Path 4329" d="M393.76,287.39a7,7,0,0,1-5.56-2.2,9,9,0,0,1-1.92-6.11V266.57h4.28v11.91a5.42,5.42,0,0,0,1.14,3.73,4,4,0,0,0,3.09,1.26,4.92,4.92,0,0,0,2.81-.83,5.29,5.29,0,0,0,1.88-2.22,6.86,6.86,0,0,0,.66-3V266.57h4.67c1,0,1.46-.52,1.46-1.55v-2.93h3.29V265a4.16,4.16,0,0,1-4.75,4.72h-.44v17.06h-4V284h-.23a6.68,6.68,0,0,1-2.62,2.41A7.75,7.75,0,0,1,393.76,287.39Zm1.67-29.93h4.83l-3.17,5.19h-3.53Z" fill="#144a91"/>
    <path id="Path_4330" data-name="Path 4330" d="M418.62,287.39a7,7,0,0,1-5.56-2.2,9,9,0,0,1-1.92-6.11V266.57h4.28v11.91a5.37,5.37,0,0,0,1.15,3.73,4,4,0,0,0,3.08,1.26,4.89,4.89,0,0,0,2.81-.83,5.29,5.29,0,0,0,1.88-2.22,6.861,6.861,0,0,0,.66-3V266.57h4.23v20.19h-4V284H425a6.609,6.609,0,0,1-2.62,2.41,7.75,7.75,0,0,1-3.76.98Z" fill="#144a91"/>
    <path id="Path_4331" data-name="Path 4331" d="M462.17,281.45,465,285l-3.13,2.37-2.05-2.57a9.52,9.52,0,0,1-6.7,2.57,10.839,10.839,0,0,1-5.26-1.29,9.56,9.56,0,0,1-3.74-3.56,9.71,9.71,0,0,1-1.37-5.09,9.23,9.23,0,0,1,1.25-4.61,10.79,10.79,0,0,1,3.46-3.66,12.722,12.722,0,0,1-1.4-2.35,5.77,5.77,0,0,1-.5-2.32,6.5,6.5,0,0,1,.93-3.41,6.74,6.74,0,0,1,2.54-2.43,7.21,7.21,0,0,1,3.54-.89,6.71,6.71,0,0,1,4.26,1.32,7.51,7.51,0,0,1,2.43,3.43l-3.52,1.86c-.64-1.82-1.68-2.73-3.13-2.73a2.92,2.92,0,0,0-2.08.77,2.7,2.7,0,0,0-.81,2,3.841,3.841,0,0,0,1,2.49l9,11.41,2.45-4.08,3.21,2Zm-8.95,2.1a5.78,5.78,0,0,0,4.24-1.7l-7.72-9.74a6.9,6.9,0,0,0-2.2,2.3,5.71,5.71,0,0,0-.81,2.93,6,6,0,0,0,3.25,5.42A6.81,6.81,0,0,0,453.22,283.55Z" fill="#144a91"/>
    <path id="Path_4332" data-name="Path 4332" d="M492.3,287.39a14.78,14.78,0,0,1-7.51-1.94,14.06,14.06,0,0,1-5.32-5.34,15.56,15.56,0,0,1,0-15.05,14.06,14.06,0,0,1,5.32-5.34,14.88,14.88,0,0,1,7.51-1.94,13.41,13.41,0,0,1,10.49,4.63l-3.05,3a10,10,0,0,0-3.27-2.61,9.39,9.39,0,0,0-4.13-.87,10.65,10.65,0,0,0-5.27,1.32,9.77,9.77,0,0,0-3.76,3.76,12,12,0,0,0,0,11.21,9.77,9.77,0,0,0,3.76,3.76,10.65,10.65,0,0,0,5.27,1.32,10.11,10.11,0,0,0,8.11-4l3.13,3a14.439,14.439,0,0,1-4.95,3.77,14.929,14.929,0,0,1-6.33,1.32Z" fill="#144a91"/>
    <path id="Path_4333" data-name="Path 4333" d="M522.68,286a10.62,10.62,0,0,1-5.44,1.4,10.76,10.76,0,0,1-5.47-1.4,10,10,0,0,1-3.76-3.86,11.81,11.81,0,0,1,0-10.93,9.891,9.891,0,0,1,3.76-3.86,10.66,10.66,0,0,1,5.47-1.41,10.48,10.48,0,0,1,5.42,1.43,10,10,0,0,1,3.76,3.88,11.66,11.66,0,0,1,0,10.89A10,10,0,0,1,522.68,286Zm-8.59-3.35a6.23,6.23,0,0,0,3.15.83,6.09,6.09,0,0,0,5.42-3.2,7.9,7.9,0,0,0,0-7.21,6.25,6.25,0,0,0-2.29-2.38,6.282,6.282,0,0,0-8.6,2.38,7.9,7.9,0,0,0,0,7.21,6.149,6.149,0,0,0,2.32,2.36Zm-3-20.23,4.24-4.79h3.76l4.27,4.79v.28H519.3l-1.86-2.42H517l-1.82,2.42H511.1Z" fill="#144a91"/>
    <path id="Path_4334" data-name="Path 4334" d="M531.69,266.57h4v2.77H536a6.58,6.58,0,0,1,2.62-2.46,7.751,7.751,0,0,1,3.76-.95,7,7,0,0,1,5.54,2.16,8.63,8.63,0,0,1,1.9,5.92v12.75h-4.24v-12.2a4.77,4.77,0,0,0-1.18-3.54,4.45,4.45,0,0,0-3.25-1.17,4.52,4.52,0,0,0-2.67.83,5.6,5.6,0,0,0-1.82,2.22,6.94,6.94,0,0,0-.66,3v10.85h-4.27Z" fill="#144a91"/>
    <path id="Path_4335" data-name="Path 4335" d="M563.75,295.94a10.51,10.51,0,0,1-6.11-1.68,8.231,8.231,0,0,1-3.27-4.06l4-1.66a5.56,5.56,0,0,0,2.08,2.61,6.43,6.43,0,0,0,7.74-.67,6.59,6.59,0,0,0,1.58-4.71v-1.94h-.24a6.791,6.791,0,0,1-2.65,2.29,8.3,8.3,0,0,1-3.8.84,9,9,0,0,1-4.73-1.31,9.329,9.329,0,0,1-3.44-3.7,12.31,12.31,0,0,1,0-11,9.45,9.45,0,0,1,3.44-3.72,8.92,8.92,0,0,1,4.73-1.33,8.219,8.219,0,0,1,3.78.86,6.91,6.91,0,0,1,2.67,2.31h.24v-2.53h4.08v19.12a11.36,11.36,0,0,1-1.27,5.56,8.38,8.38,0,0,1-3.54,3.51A11.22,11.22,0,0,1,563.75,295.94Zm-3-13.64a6,6,0,0,0,3,.78,5.75,5.75,0,0,0,5.13-3.07,7.3,7.3,0,0,0,.81-3.55,7.531,7.531,0,0,0-.81-3.6,5.58,5.58,0,0,0-2.16-2.27,5.78,5.78,0,0,0-3-.78,6,6,0,0,0-3,.78,5.53,5.53,0,0,0-2.17,2.27,7.529,7.529,0,0,0-.81,3.6,7.409,7.409,0,0,0,.81,3.57,5.53,5.53,0,0,0,2.25,2.27Z" fill="#144a91"/>
    <path id="Path_4336" data-name="Path 4336" d="M588.73,258.41h5.15l12.83,20.83h.23l-.23-5.47V258.41H611v28.35h-4.51l-13.46-21.89h-.24l.24,5.46v16.43h-4.32Z" fill="#144a91"/>
    <path id="Path_4337" data-name="Path 4337" d="M625.83,295.94a10.54,10.54,0,0,1-6.12-1.68,8.2,8.2,0,0,1-3.26-4.06l3.95-1.66a5.62,5.62,0,0,0,2.08,2.61,6.43,6.43,0,0,0,7.74-.67,6.55,6.55,0,0,0,1.59-4.71v-1.94h-.24a6.87,6.87,0,0,1-2.65,2.29,8.329,8.329,0,0,1-3.8.84,9,9,0,0,1-4.74-1.31,9.47,9.47,0,0,1-3.44-3.7,12.31,12.31,0,0,1,0-11,9.6,9.6,0,0,1,3.44-3.72,8.93,8.93,0,0,1,4.74-1.33,8.28,8.28,0,0,1,3.78.86,6.91,6.91,0,0,1,2.67,2.31h.24v-2.53h4.07v19.12a11.48,11.48,0,0,1-1.26,5.56,8.459,8.459,0,0,1-3.55,3.51,11.15,11.15,0,0,1-5.24,1.21Zm-3-13.64a5.93,5.93,0,0,0,3,.78A5.72,5.72,0,0,0,631,280a7.19,7.19,0,0,0,.82-3.55,7.42,7.42,0,0,0-.82-3.6,5.62,5.62,0,0,0-2.15-2.27,5.83,5.83,0,0,0-3-.78,5.93,5.93,0,0,0-3,.78,5.561,5.561,0,0,0-2.18,2.27,7.529,7.529,0,0,0-.81,3.6,7.41,7.41,0,0,0,.81,3.57,5.56,5.56,0,0,0,2.21,2.28Z" fill="#144a91"/>
    <path id="Path_4338" data-name="Path 4338" d="M640.87,258.41h4.28v7.76l-.24,3.17h.24a6.62,6.62,0,0,1,2.59-2.46,7.74,7.74,0,0,1,3.78-.95,7.12,7.12,0,0,1,5.62,2.2,8.6,8.6,0,0,1,1.94,5.88v12.75h-4.23v-12.2A4.65,4.65,0,0,0,653.6,271a4.44,4.44,0,0,0-3.19-1.19,4.6,4.6,0,0,0-2.67.85,5.83,5.83,0,0,0-1.9,2.28,6.811,6.811,0,0,0-.69,3v10.77h-4.28Z" fill="#144a91"/>
    <path id="Path_4339" data-name="Path 4339" d="M673.18,287.39a10.26,10.26,0,0,1-5.29-1.38,9.8,9.8,0,0,1-3.68-3.82,11.24,11.24,0,0,1-1.33-5.49,11.43,11.43,0,0,1,1.29-5.36,10.159,10.159,0,0,1,3.58-3.94,9.42,9.42,0,0,1,5.19-1.47,10.1,10.1,0,0,1,5.26,1.33,8.74,8.74,0,0,1,3.39,3.66,11.71,11.71,0,0,1,1.17,5.31,10,10,0,0,1-.08,1.34h-15.6a6.48,6.48,0,0,0,2.06,4.46,6.11,6.11,0,0,0,4.15,1.56,6,6,0,0,0,3.33-.89,6.71,6.71,0,0,0,2.22-2.36l3.52,1.71a10.531,10.531,0,0,1-3.68,3.92A10.23,10.23,0,0,1,673.18,287.39Zm-6.34-25,4.24-4.79h3.76l4.27,4.79v.28H675l-1.86-2.42h-.4l-1.82,2.42h-4.08Zm11.68,12a5.23,5.23,0,0,0-2.55-4.06,5.66,5.66,0,0,0-3-.73,5.26,5.26,0,0,0-3.62,1.3,6.73,6.73,0,0,0-2,3.49ZM672.82,295a2.37,2.37,0,0,1-1.78-.77,2.49,2.49,0,0,1-.75-1.8,2.56,2.56,0,0,1,4.35-1.8,2.47,2.47,0,0,1,.71,1.8,2.5,2.5,0,0,1-.73,1.82A2.42,2.42,0,0,1,672.82,295Z" fill="#144a91"/>
    <path id="Path_4340" data-name="Path 4340" d="M696.65,258.41h5.15l12.82,20.83h.24l-.24-5.47V258.41h4.32v28.35h-4.51L701,264.87h-.24l.24,5.46v16.43h-4.32Z" fill="#144a91"/>
    <path id="Path_4341" data-name="Path 4341" d="M724.64,258.41h4.28v7.76l-.24,3.17h.24a6.62,6.62,0,0,1,2.59-2.46,7.74,7.74,0,0,1,3.78-.95,7.12,7.12,0,0,1,5.62,2.2,8.6,8.6,0,0,1,1.94,5.88v12.75h-4.24v-12.2a4.65,4.65,0,0,0-1.24-3.52,4.45,4.45,0,0,0-3.19-1.19,4.56,4.56,0,0,0-2.67.85,5.831,5.831,0,0,0-1.9,2.28,6.811,6.811,0,0,0-.69,3v10.77h-4.28Z" fill="#144a91"/>
    <path id="Path_4342" data-name="Path 4342" d="M754.05,287.39a8.549,8.549,0,0,1-3.88-.85,6.49,6.49,0,0,1-2.65-2.4,6.58,6.58,0,0,1-.95-3.52,6,6,0,0,1,1.11-3.62,7.079,7.079,0,0,1,3-2.34,10.72,10.72,0,0,1,4.24-.81,13.9,13.9,0,0,1,3.22.34,10.619,10.619,0,0,1,2.32.77v-1.07a4,4,0,0,0-1.43-3.15,5.52,5.52,0,0,0-3.68-1.2,6.47,6.47,0,0,0-2.93.69,5.91,5.91,0,0,0-2.22,1.88l-2.93-2.26a8.85,8.85,0,0,1,3.47-2.89,10.919,10.919,0,0,1,4.73-1,9.74,9.74,0,0,1,6.75,2.16,7.7,7.7,0,0,1,2.39,6v12.63h-4.15v-2.5h-.24a6.72,6.72,0,0,1-2.49,2.24,7.6,7.6,0,0,1-3.68.9Zm.76-3.48a5.59,5.59,0,0,0,4.93-2.85,5.74,5.74,0,0,0,.73-2.81,8.563,8.563,0,0,0-2.18-.87,9.89,9.89,0,0,0-2.57-.32,5.61,5.61,0,0,0-3.67,1,3.27,3.27,0,0,0-1.16,2.61A2.92,2.92,0,0,0,752,283,4.27,4.27,0,0,0,754.81,283.91Z" fill="#144a91"/>
    <path id="Path_4343" data-name="Path 4343" d="M779.27,258.41h4.36V272h.23l11.56-13.54h5.39v.24l-10.37,11.92,11.28,15.95v.24h-5.31L787.47,274l-3.84,4.47v8.32h-4.36Z" fill="#144a91"/>
    <path id="Path_4344" data-name="Path 4344" d="M804.45,258.41h4.27v7.76l-.23,3.17h.23a6.65,6.65,0,0,1,2.6-2.46,7.74,7.74,0,0,1,3.78-.95,7.12,7.12,0,0,1,5.62,2.2,8.6,8.6,0,0,1,1.94,5.88v12.75h-4.24v-12.2a4.65,4.65,0,0,0-1.24-3.52,4.45,4.45,0,0,0-3.19-1.19,4.56,4.56,0,0,0-2.67.85,5.83,5.83,0,0,0-1.9,2.28,6.82,6.82,0,0,0-.7,3v10.77h-4.27Z" fill="#144a91"/>
    <path id="Path_4345" data-name="Path 4345" d="M842.47,286a10.591,10.591,0,0,1-5.44,1.4,10.72,10.72,0,0,1-5.46-1.4,9.89,9.89,0,0,1-3.76-3.86,11.74,11.74,0,0,1,0-10.93,9.83,9.83,0,0,1,3.76-3.86,10.63,10.63,0,0,1,5.46-1.41,10.45,10.45,0,0,1,5.42,1.43,10,10,0,0,1,3.77,3.88,11.73,11.73,0,0,1,0,10.89,10,10,0,0,1-3.75,3.86Zm-8.59-3.35a6.279,6.279,0,0,0,3.15.83,6.09,6.09,0,0,0,5.42-3.2,7.82,7.82,0,0,0,0-7.21,6.249,6.249,0,0,0-2.29-2.38,6.27,6.27,0,0,0-8.59,2.38,7.9,7.9,0,0,0,0,7.21,6.131,6.131,0,0,0,2.31,2.36Z" fill="#144a91"/>
    <path id="Path_4346" data-name="Path 4346" d="M857.81,287.39a8.55,8.55,0,0,1-3.88-.85,6.49,6.49,0,0,1-2.65-2.4,6.58,6.58,0,0,1-.95-3.52,6,6,0,0,1,1.11-3.62,7.08,7.08,0,0,1,3-2.34,10.72,10.72,0,0,1,4.24-.81,13.9,13.9,0,0,1,3.22.34,10.438,10.438,0,0,1,2.32.77v-1.07a4,4,0,0,0-1.43-3.15,5.51,5.51,0,0,0-3.68-1.2,6.51,6.51,0,0,0-2.93.69,5.909,5.909,0,0,0-2.22,1.88l-2.92-2.26a8.749,8.749,0,0,1,3.46-2.89,10.92,10.92,0,0,1,4.73-1,9.74,9.74,0,0,1,6.75,2.16,7.7,7.7,0,0,1,2.39,6v12.63h-4.15v-2.5H864a6.72,6.72,0,0,1-2.49,2.24,7.6,7.6,0,0,1-3.7.9Zm.76-3.48a5.59,5.59,0,0,0,4.93-2.85,5.741,5.741,0,0,0,.73-2.81,8.56,8.56,0,0,0-2.18-.87,9.891,9.891,0,0,0-2.57-.32,5.56,5.56,0,0,0-3.66,1,3.25,3.25,0,0,0-1.17,2.61,2.92,2.92,0,0,0,1.07,2.34,4.27,4.27,0,0,0,2.85.9Z" fill="#144a91"/>
    <path id="Path_4347" data-name="Path 4347" d="M604.81,171.07c0-14.92-8.25-23.17-21-23.17s-21,8.25-21,23.17V227a3.62,3.62,0,0,1-3.62,3.62H537.81a3.63,3.63,0,0,1-3.62-3.62V124.6a3.62,3.62,0,0,1,3.62-3.61h21.35a3.62,3.62,0,0,1,3.62,3.61v10.92c6.68-9.23,18.46-15.71,33.19-15.71,25.34,0,38.23,17.28,38.23,46.74V227a3.62,3.62,0,0,1-3.62,3.62H608.43a3.62,3.62,0,0,1-3.62-3.62Z" fill="#144a91"/>
  </g>
</svg>
